<?xml version="1.0" standalone="no"?>
<!DOCTYPE svg PUBLIC "-//W3C//DTD SVG 20010904//EN"
 "http://www.w3.org/TR/2001/REC-SVG-20010904/DTD/svg10.dtd">
<svg version="1.0" xmlns="http://www.w3.org/2000/svg"
 width="1800.000000pt" height="480.000000pt" viewBox="0 0 1800.000000 480.000000"
 preserveAspectRatio="xMidYMid meet">

<g transform="translate(0.000000,480.000000) scale(0.100000,-0.100000)"
fill="#000000" stroke="none">
<path d="M2320 4680 c-642 -61 -1207 -354 -1608 -835 -79 -94 -197 -267 -238
-347 l-24 -47 70 1 70 1 31 48 c17 27 33 49 36 49 2 0 -8 -19 -22 -42 -93
-150 -210 -438 -253 -623 -56 -241 -70 -549 -37 -785 40 -281 148 -587 290
-817 14 -24 24 -43 21 -43 -2 0 -23 29 -45 65 -24 38 -46 63 -52 59 -6 -4 -15
0 -20 7 -5 8 -9 9 -9 3 0 -8 -18 -11 -49 -9 l-50 3 31 -57 c330 -598 915
-1026 1583 -1160 169 -34 282 -45 475 -45 193 0 306 11 475 45 659 132 1222
538 1564 1127 24 41 40 76 37 80 -4 3 -31 6 -61 6 -29 0 -52 3 -49 8 3 4 2 8
-3 8 -4 0 -27 -32 -51 -70 -24 -39 -45 -70 -48 -70 -3 0 7 19 21 42 46 75 131
250 169 347 148 374 179 846 84 1256 -43 185 -160 473 -253 623 -14 23 -24 42
-22 42 3 0 19 -22 37 -50 l32 -50 69 0 69 0 -24 48 c-41 80 -159 253 -238 347
-381 456 -922 750 -1518 825 -122 15 -379 20 -490 10z m499 -695 c93 -31 148
-72 184 -139 19 -36 22 -57 22 -166 0 -115 -3 -135 -38 -254 -21 -70 -37 -129
-35 -130 2 -1 89 -28 193 -60 105 -32 198 -65 208 -74 25 -22 20 -53 -32 -219
-65 -206 -121 -273 -232 -273 -48 0 -189 35 -306 75 -7 2 -27 -41 -52 -118
-23 -67 -41 -127 -41 -133 0 -6 86 -37 191 -69 105 -33 201 -66 212 -75 26
-22 25 -55 -7 -155 -70 -221 -169 -264 -421 -183 -60 20 -113 33 -117 29 -17
-15 -89 -310 -91 -369 -2 -58 0 -66 26 -88 37 -32 102 -32 182 1 76 31 89 31
114 -1 27 -34 27 -96 1 -198 -30 -118 -75 -202 -144 -272 -82 -82 -131 -98
-270 -92 -238 12 -459 135 -536 301 -81 172 -65 347 68 752 27 83 47 153 43
156 -3 4 -46 19 -96 34 -49 15 -96 32 -104 38 -17 14 -11 67 17 162 50 166
148 243 274 215 28 -6 53 -9 55 -6 10 10 80 252 74 258 -3 3 -46 18 -96 33
-102 31 -115 39 -115 70 0 33 77 289 101 338 47 93 110 132 203 125 34 -3 67
-7 75 -9 9 -3 54 61 127 180 163 262 237 359 269 348 5 -2 48 -17 94 -32z"/>
<path d="M10368 3484 c-21 -6 -24 -31 -38 -284 -18 -321 -59 -877 -85 -1162
-29 -312 -31 -461 -9 -559 32 -139 116 -214 256 -227 258 -24 399 81 410 307
l3 54 -54 18 c-61 21 -86 40 -108 84 -22 42 -14 237 37 840 23 270 42 549 43
620 2 119 0 134 -22 178 -46 94 -120 127 -296 132 -66 2 -128 2 -137 -1z"/>
<path d="M6096 2940 c-321 -40 -543 -210 -666 -510 -82 -198 -113 -478 -75
-677 34 -181 159 -350 315 -426 174 -85 404 -107 630 -61 229 47 359 164 348
313 -3 41 -12 71 -30 98 -29 44 -103 88 -166 98 -43 7 -43 7 -105 -58 -84 -88
-113 -101 -212 -101 -51 0 -93 6 -116 16 -88 38 -153 132 -166 237 l-5 48 47
6 c26 4 71 7 100 7 67 0 218 26 325 56 173 49 315 140 391 250 115 167 93 445
-45 572 -55 51 -147 98 -228 117 -81 18 -254 26 -342 15z m128 -419 c39 -37
60 -101 51 -158 -16 -111 -186 -203 -377 -203 -44 0 -44 0 -23 102 27 126 84
222 160 270 45 28 154 22 189 -11z"/>
<path d="M9430 2944 c-180 -30 -267 -80 -342 -195 -17 -27 -33 -49 -35 -49 -1
0 -8 20 -14 44 -22 89 -95 147 -210 166 -89 14 -221 13 -242 -2 -15 -11 -24
-101 -67 -658 -100 -1294 -100 -1293 -75 -1377 19 -64 74 -116 146 -137 63
-19 294 -23 305 -5 3 6 14 110 25 232 30 361 39 470 45 505 l5 34 27 -53 c35
-67 110 -145 164 -169 66 -28 164 -43 245 -36 316 28 538 261 628 661 22 96
31 427 16 537 -39 268 -171 436 -381 486 -52 12 -203 23 -240 16z m-43 -415
c93 -45 133 -140 140 -334 9 -220 -30 -374 -117 -469 -55 -60 -111 -86 -184
-86 -72 0 -126 27 -166 82 -109 151 -102 554 14 726 63 94 208 132 313 81z"/>
<path d="M11745 2940 c-343 -37 -593 -233 -694 -540 -74 -229 -79 -558 -11
-762 64 -190 224 -329 432 -375 50 -11 122 -16 228 -17 188 0 286 21 430 91
80 39 108 59 185 137 81 81 98 104 148 206 70 142 103 265 119 437 27 297 -37
531 -183 672 -57 55 -184 116 -279 135 -98 19 -274 27 -375 16z m233 -422 c83
-55 116 -184 100 -384 -15 -183 -63 -317 -145 -405 -60 -65 -110 -89 -188 -89
-187 0 -274 172 -245 481 20 215 85 344 203 404 47 24 60 26 143 23 79 -3 97
-8 132 -30z"/>
<path d="M13647 2940 c-111 -20 -235 -103 -298 -201 l-33 -49 -17 56 c-39 125
-154 180 -359 172 -102 -4 -105 -10 -119 -203 -6 -82 -27 -357 -47 -610 -40
-513 -41 -644 -7 -710 45 -87 110 -115 277 -122 167 -7 163 -11 176 172 30
415 63 778 75 838 17 81 51 159 89 204 35 41 95 60 134 41 46 -22 57 -60 55
-186 -2 -112 -2 -113 23 -122 14 -6 58 -10 98 -10 126 0 210 43 275 141 106
158 93 405 -26 510 -77 67 -191 97 -296 79z"/>
<path d="M14816 2940 c-321 -40 -543 -210 -666 -510 -82 -198 -113 -478 -75
-677 34 -181 159 -350 315 -426 174 -85 404 -107 630 -61 229 47 359 164 348
313 -3 41 -12 71 -30 98 -29 44 -103 88 -166 98 -43 7 -43 7 -105 -58 -84 -88
-113 -101 -212 -101 -51 0 -93 6 -116 16 -88 38 -153 132 -166 237 l-5 48 47
6 c26 4 71 7 100 7 67 0 218 26 325 56 173 49 315 140 391 250 115 167 93 445
-45 572 -55 51 -147 98 -228 117 -81 18 -254 26 -342 15z m128 -419 c39 -37
60 -101 51 -158 -16 -111 -186 -203 -377 -203 -44 0 -44 0 -23 102 27 126 84
222 160 270 45 28 154 22 189 -11z"/>
<path d="M16527 2940 c-111 -20 -235 -103 -298 -201 l-33 -49 -17 56 c-39 125
-154 180 -359 172 -102 -4 -105 -10 -119 -203 -6 -82 -27 -357 -47 -610 -40
-513 -41 -644 -7 -710 45 -87 110 -115 277 -122 167 -7 163 -11 176 172 30
415 63 778 75 838 17 81 51 159 89 204 35 41 95 60 134 41 46 -22 57 -60 55
-186 -2 -112 -2 -113 23 -122 14 -6 58 -10 98 -10 126 0 210 43 275 141 106
158 93 405 -26 510 -77 67 -191 97 -296 79z"/>
<path d="M8012 2891 c-22 -27 -90 -132 -152 -233 -131 -215 -179 -283 -190
-272 -4 5 -47 83 -95 174 -47 90 -100 183 -118 206 -38 50 -105 97 -167 119
-73 26 -235 40 -319 27 -81 -12 -101 -23 -101 -59 0 -33 13 -57 172 -310 132
-212 268 -441 268 -452 0 -4 -44 -33 -98 -66 -126 -78 -276 -191 -331 -250
-82 -90 -112 -207 -80 -315 25 -84 148 -201 226 -216 47 -9 61 7 196 205 105
155 248 342 267 349 5 2 48 -74 95 -168 155 -307 236 -360 549 -360 132 0 168
8 189 41 15 24 -9 67 -243 419 -119 179 -219 330 -223 337 -4 7 20 31 65 64
128 92 278 220 318 270 55 69 73 124 68 202 -5 90 -53 183 -138 270 -83 85
-103 87 -158 18z"/>
</g>
</svg>
